<svg width="24" height="24" viewBox="0 0 24 24" fill="none" xmlns="http://www.w3.org/2000/svg">
<path d="M7.5 8.744C7.847 8.362 8.415 8 9.25 8C10.402 8 11.144 8.792 11.405 9.661C11.658 10.508 11.505 11.556 10.785 12.279C10.5355 12.5193 10.2706 12.7431 9.992 12.949L9.952 12.98C9.672 13.196 9.422 13.392 9.202 13.61C8.947 13.866 8.738 14.145 8.617 14.5H10.75C10.9489 14.5 11.1397 14.579 11.2803 14.7197C11.421 14.8603 11.5 15.0511 11.5 15.25C11.5 15.4489 11.421 15.6397 11.2803 15.7803C11.1397 15.921 10.9489 16 10.75 16H7.75C7.55109 16 7.36032 15.921 7.21967 15.7803C7.07902 15.6397 7 15.4489 7 15.25C7 14.003 7.524 13.167 8.144 12.549C8.44 12.253 8.762 12.004 9.034 11.793L9.037 11.791C9.323 11.57 9.545 11.398 9.722 11.221C9.994 10.947 10.089 10.496 9.968 10.091C9.853 9.71 9.598 9.5 9.25 9.5C8.897 9.5 8.715 9.637 8.61 9.753C8.54793 9.8203 8.49787 9.89776 8.462 9.982V9.985C8.40073 10.1744 8.26675 10.3316 8.08953 10.4222C7.91231 10.5128 7.70636 10.5293 7.517 10.468C7.32764 10.4067 7.17036 10.2728 7.07978 10.0955C6.9892 9.91831 6.97273 9.71236 7.034 9.523L7.069 9.427C7.17096 9.17577 7.31753 8.94454 7.5 8.744ZM13.25 8C13.4489 8 13.6397 8.07902 13.7803 8.21967C13.921 8.36032 14 8.55109 14 8.75V11.5H15.5V8.75C15.5 8.55109 15.579 8.36032 15.7197 8.21967C15.8603 8.07902 16.0511 8 16.25 8C16.4489 8 16.6397 8.07902 16.7803 8.21967C16.921 8.36032 17 8.55109 17 8.75V15.22C17 15.4189 16.921 15.6097 16.7803 15.7503C16.6397 15.891 16.4489 15.97 16.25 15.97C16.0511 15.97 15.8603 15.891 15.7197 15.7503C15.579 15.6097 15.5 15.4189 15.5 15.22V13H13.25C13.0511 13 12.8603 12.921 12.7197 12.7803C12.579 12.6397 12.5 12.4489 12.5 12.25V8.75C12.5 8.55109 12.579 8.36032 12.7197 8.21967C12.8603 8.07902 13.0511 8 13.25 8ZM22 12C22 6.477 17.523 2 12 2C6.477 2 2 6.477 2 12C2 17.523 6.477 22 12 22C17.523 22 22 17.523 22 12ZM3.5 12C3.5 9.74566 4.39553 7.58365 5.98959 5.98959C7.58365 4.39553 9.74566 3.5 12 3.5C14.2543 3.5 16.4163 4.39553 18.0104 5.98959C19.6045 7.58365 20.5 9.74566 20.5 12C20.5 14.2543 19.6045 16.4163 18.0104 18.0104C16.4163 19.6045 14.2543 20.5 12 20.5C9.74566 20.5 7.58365 19.6045 5.98959 18.0104C4.39553 16.4163 3.5 14.2543 3.5 12Z" fill="#FBF8FC"/>
</svg>
