<svg width="24" height="24" viewBox="0 0 24 24" fill="none" xmlns="http://www.w3.org/2000/svg">
<path d="M22 9V7C22 6.46957 21.7893 5.96086 21.4142 5.58579C21.0391 5.21071 20.5304 5 20 5H4C3.46957 5 2.96086 5.21071 2.58579 5.58579C2.21071 5.96086 2 6.46957 2 7V17C2 17.5304 2.21071 18.0391 2.58579 18.4142C2.96086 18.7893 3.46957 19 4 19H12M22 9H6M22 9V11" stroke="#FBF8FC" stroke-width="1.5" stroke-linecap="round" stroke-linejoin="round"/>
<path d="M18.9929 14.125L21.5489 14.774C21.8149 14.842 22.0019 15.084 21.9939 15.358C21.8219 21.116 18.5009 22 18.5009 22C18.5009 22 15.1799 21.116 15.0079 15.358C15.0052 15.2247 15.0477 15.0944 15.1285 14.9883C15.2093 14.8823 15.3237 14.8067 15.4529 14.774L18.0089 14.125C18.3319 14.043 18.6699 14.043 18.9929 14.125Z" stroke="#FBF8FC" stroke-width="1.5" stroke-linecap="round" stroke-linejoin="round"/>
</svg>
