<svg width="20" height="20" viewBox="0 0 20 20" fill="none" xmlns="http://www.w3.org/2000/svg">
<path d="M4.309 2.734C4.322 3.371 4.766 4 5.7 4H8.707C8.58377 3.70372 8.43696 3.4178 8.268 3.145C7.714 2.248 6.902 1.5 5.7 1.5C5.145 1.5 4.81 1.683 4.615 1.89C4.40578 2.12003 4.29581 2.42334 4.309 2.734ZM10.793 4H13.8C14.341 4 14.682 3.819 14.89 3.604C15.105 3.381 15.222 3.073 15.222 2.75C15.222 2.427 15.105 2.12 14.889 1.896C14.682 1.681 14.341 1.5 13.8 1.5C12.598 1.5 11.786 2.248 11.232 3.145C11.05 3.438 10.905 3.735 10.792 4M18.499 10.5V16.75C18.499 17.4792 18.2094 18.1785 17.6939 18.6942C17.1784 19.2099 16.4792 19.4997 15.75 19.5H3.75C3.02065 19.5 2.32118 19.2103 1.80546 18.6945C1.28973 18.1788 1 17.4793 1 16.75V10.5H0.75C0.551088 10.5 0.360322 10.421 0.21967 10.2803C0.0790175 10.1397 0 9.94891 0 9.75V6.75C0 6.02065 0.289731 5.32118 0.805456 4.80546C1.32118 4.28973 2.02065 4 2.75 4H3.12C2.92465 3.61736 2.81833 3.19552 2.809 2.766C2.78764 2.06121 3.04489 1.37641 3.525 0.86C4.038 0.317 4.785 0 5.7 0C7.648 0 8.861 1.252 9.544 2.355C9.61733 2.475 9.686 2.59367 9.75 2.711C9.814 2.59367 9.88267 2.475 9.956 2.355C10.639 1.252 11.852 0 13.8 0C14.707 0 15.451 0.319 15.968 0.854C16.477 1.381 16.722 2.073 16.722 2.75C16.722 3.176 16.625 3.607 16.427 4H16.75C17.4793 4 18.1788 4.28973 18.6945 4.80546C19.2103 5.32118 19.5 6.02065 19.5 6.75V9.75C19.5 9.94891 19.421 10.1397 19.2803 10.2803C19.1397 10.421 18.9489 10.5 18.75 10.5H18.499ZM16.999 10.5H10.499V18H15.75C16.44 18 17 17.44 17 16.75L16.999 10.5ZM8.999 18V10.5H2.499V16.75C2.499 17.44 3.059 18 3.749 18H8.999Z" fill="#FBF8FC"/>
</svg>
