<svg width="89" height="49" viewBox="0 0 89 49" fill="none" xmlns="http://www.w3.org/2000/svg">
<path d="M37.8161 43.1094V5.77608C37.8161 4.36159 37.2536 3.00504 36.2523 2.00485C35.2511 1.00465 33.8931 0.442749 32.4771 0.442749H16.0011C14.5852 0.443051 13.2274 1.00515 12.2264 2.00542L2.00767 12.2134C1.00636 13.2134 0.443662 14.5697 0.443359 15.9841V43.1094C0.443359 46.0561 2.8272 48.4428 5.77431 48.4428H32.4798C33.8953 48.442 35.2526 47.8798 36.2533 46.8797C37.2539 45.8796 37.8161 44.5234 37.8161 43.1094Z" stroke="#FBF8FC" stroke-width="0.885609" stroke-linecap="round" stroke-linejoin="round"/>
<path d="M4.9288 25.2693V20.8058H5.31776L7.3582 24.2873H7.15416L9.17547 20.8058H9.56443V25.2693H9.11171V21.5136H9.22011L7.3582 24.7018H7.13503L5.26037 21.5136H5.38152V25.2693H4.9288ZM11.4396 22.8016H13.7988V23.2033H11.4396V22.8016ZM11.4906 24.8612H14.1751V25.2693H11.0187V20.8058H14.0794V21.2139H11.4906V24.8612ZM12.141 20.4424L13.0146 19.6517H13.6203L12.5873 20.4424H12.141ZM16.1514 25.2693V21.2139H14.5828V20.8058H18.1918V21.2139H16.6232V25.2693H16.1514ZM20.8345 25.3075C20.4987 25.3075 20.1863 25.2523 19.8972 25.1418C19.6124 25.027 19.3637 24.8676 19.1512 24.6635C18.9429 24.4552 18.7792 24.2151 18.6602 23.943C18.5454 23.6667 18.488 23.3649 18.488 23.0376C18.488 22.7102 18.5454 22.4105 18.6602 22.1385C18.7792 21.8622 18.9429 21.622 19.1512 21.418C19.3637 21.2097 19.6124 21.0502 19.8972 20.9397C20.182 20.8249 20.4945 20.7676 20.8345 20.7676C21.1704 20.7676 21.4807 20.8249 21.7655 20.9397C22.0503 21.0502 22.2969 21.2075 22.5052 21.4116C22.7177 21.6156 22.8814 21.8558 22.9961 22.1321C23.1152 22.4084 23.1747 22.7102 23.1747 23.0376C23.1747 23.3649 23.1152 23.6667 22.9961 23.943C22.8814 24.2193 22.7177 24.4595 22.5052 24.6635C22.2969 24.8676 22.0503 25.027 21.7655 25.1418C21.4807 25.2523 21.1704 25.3075 20.8345 25.3075ZM20.8345 24.8867C21.1023 24.8867 21.3489 24.8421 21.5742 24.7528C21.8038 24.6593 22.0014 24.5296 22.1672 24.3638C22.3372 24.1938 22.469 23.9983 22.5625 23.7772C22.6561 23.5519 22.7028 23.3054 22.7028 23.0376C22.7028 22.7697 22.6561 22.5253 22.5625 22.3043C22.469 22.079 22.3372 21.8834 22.1672 21.7176C22.0014 21.5476 21.8038 21.418 21.5742 21.3287C21.3489 21.2352 21.1023 21.1884 20.8345 21.1884C20.5667 21.1884 20.3181 21.2352 20.0885 21.3287C19.859 21.418 19.6592 21.5476 19.4891 21.7176C19.3233 21.8834 19.1916 22.079 19.0938 22.3043C19.0003 22.5253 18.9535 22.7697 18.9535 23.0376C18.9535 23.3011 19.0003 23.5455 19.0938 23.7708C19.1916 23.9961 19.3233 24.1938 19.4891 24.3638C19.6592 24.5296 19.859 24.6593 20.0885 24.7528C20.3181 24.8421 20.5667 24.8867 20.8345 24.8867ZM24.2323 25.2693V20.8058H26.0496C26.5257 20.8058 26.9423 20.9015 27.2993 21.0928C27.6607 21.2798 27.9412 21.5412 28.141 21.8771C28.3408 22.2129 28.4407 22.5997 28.4407 23.0376C28.4407 23.4754 28.3408 23.8622 28.141 24.1981C27.9412 24.5339 27.6607 24.7974 27.2993 24.9887C26.9423 25.1758 26.5257 25.2693 26.0496 25.2693H24.2323ZM24.7042 24.8612H26.0241C26.4194 24.8612 26.7616 24.7847 27.0507 24.6316C27.344 24.4744 27.5714 24.2597 27.7329 23.9876C27.8945 23.7113 27.9752 23.3946 27.9752 23.0376C27.9752 22.6762 27.8945 22.3595 27.7329 22.0875C27.5714 21.8154 27.344 21.6029 27.0507 21.4498C26.7616 21.2925 26.4194 21.2139 26.0241 21.2139H24.7042V24.8612ZM31.4515 25.3075C31.1156 25.3075 30.8032 25.2523 30.5141 25.1418C30.2293 25.027 29.9806 24.8676 29.7681 24.6635C29.5598 24.4552 29.3961 24.2151 29.2771 23.943C29.1623 23.6667 29.105 23.3649 29.105 23.0376C29.105 22.7102 29.1623 22.4105 29.2771 22.1385C29.3961 21.8622 29.5598 21.622 29.7681 21.418C29.9806 21.2097 30.2293 21.0502 30.5141 20.9397C30.799 20.8249 31.1114 20.7676 31.4515 20.7676C31.7873 20.7676 32.0976 20.8249 32.3824 20.9397C32.6672 21.0502 32.9138 21.2075 33.1221 21.4116C33.3346 21.6156 33.4983 21.8558 33.6131 22.1321C33.7321 22.4084 33.7916 22.7102 33.7916 23.0376C33.7916 23.3649 33.7321 23.6667 33.6131 23.943C33.4983 24.2193 33.3346 24.4595 33.1221 24.6635C32.9138 24.8676 32.6672 25.027 32.3824 25.1418C32.0976 25.2523 31.7873 25.3075 31.4515 25.3075ZM31.4515 24.8867C31.7193 24.8867 31.9658 24.8421 32.1911 24.7528C32.4207 24.6593 32.6183 24.5296 32.7841 24.3638C32.9542 24.1938 33.0859 23.9983 33.1795 23.7772C33.273 23.5519 33.3197 23.3054 33.3197 23.0376C33.3197 22.7697 33.273 22.5253 33.1795 22.3043C33.0859 22.079 32.9542 21.8834 32.7841 21.7176C32.6183 21.5476 32.4207 21.418 32.1911 21.3287C31.9658 21.2352 31.7193 21.1884 31.4515 21.1884C31.1837 21.1884 30.935 21.2352 30.7054 21.3287C30.4759 21.418 30.2761 21.5476 30.1061 21.7176C29.9403 21.8834 29.8085 22.079 29.7107 22.3043C29.6172 22.5253 29.5704 22.7697 29.5704 23.0376C29.5704 23.3011 29.6172 23.5455 29.7107 23.7708C29.8085 23.9961 29.9403 24.1938 30.1061 24.3638C30.2761 24.5296 30.4759 24.6593 30.7054 24.7528C30.935 24.8421 31.1837 24.8867 31.4515 24.8867Z" fill="#FBF8FC"/>
<path d="M4.16211 41.6604V30.2693H6.27761V39.8704H12.2336V41.6604H4.16211Z" fill="#FBF8FC"/>
<path d="M13.9037 41.6604V30.2693H18.5904C19.5993 30.2693 20.4618 30.432 21.1778 30.7575C21.9046 31.0829 22.4634 31.5494 22.8539 32.157C23.2445 32.7645 23.4397 33.4859 23.4397 34.3213C23.4397 35.1566 23.2445 35.8781 22.8539 36.4856C22.4634 37.0931 21.9046 37.5596 21.1778 37.8851C20.4618 38.2106 19.5993 38.3733 18.5904 38.3733H15.0754L16.0192 37.3806V41.6604H13.9037ZM16.0192 37.6084L15.0754 36.5832H18.4927C19.4257 36.5832 20.1255 36.388 20.592 35.9974C21.0693 35.596 21.308 35.0373 21.308 34.3213C21.308 33.5944 21.0693 33.0357 20.592 32.6452C20.1255 32.2546 19.4257 32.0593 18.4927 32.0593H15.0754L16.0192 31.0178V37.6084Z" fill="#FBF8FC"/>
<path d="M27.5051 35.0048H33.1681V36.746H27.5051V35.0048ZM27.6678 39.8867H34.0957V41.6604H25.5523V30.2693H33.8679V32.0431H27.6678V39.8867Z" fill="#FBF8FC"/>
<path d="M42.3286 12.9852V7.03394H42.9577V12.4411H46.2904V12.9852H42.3286ZM47.8962 9.69502H51.0418V10.2306H47.8962V9.69502ZM47.9642 12.4411H51.5435V12.9852H47.335V7.03394H51.4159V7.57806H47.9642V12.4411ZM53.0223 12.9852V7.03394H55.2498C55.7542 7.03394 56.1878 7.11612 56.5506 7.28049C56.9133 7.43919 57.1911 7.67158 57.3838 7.97764C57.5821 8.27804 57.6813 8.64362 57.6813 9.07438C57.6813 9.4938 57.5821 9.85655 57.3838 10.1626C57.1911 10.463 56.9133 10.6954 56.5506 10.8598C56.1878 11.0185 55.7542 11.0978 55.2498 11.0978H53.3709L53.6514 10.8088V12.9852H53.0223ZM57.0862 12.9852L55.5559 10.8258H56.236L57.7748 12.9852H57.0862ZM53.6514 10.8598L53.3709 10.5622H55.2328C55.8279 10.5622 56.2785 10.4318 56.5846 10.1711C56.8963 9.9104 57.0522 9.54482 57.0522 9.07438C57.0522 8.59828 56.8963 8.22986 56.5846 7.96914C56.2785 7.70842 55.8279 7.57806 55.2328 7.57806H53.3709L53.6514 7.28049V10.8598Z" fill="#FBF8FC"/>
<path d="M42.3286 26.9427V20.9915H44.5561C45.0605 20.9915 45.4941 21.0736 45.8569 21.238C46.2196 21.3967 46.4973 21.6291 46.69 21.9352C46.8884 22.2356 46.9876 22.6011 46.9876 23.0319C46.9876 23.4513 46.8884 23.8141 46.69 24.1201C46.4973 24.4205 46.2196 24.6529 45.8569 24.8173C45.4941 24.9817 45.0605 25.0638 44.5561 25.0638H42.6772L42.9577 24.7663V26.9427H42.3286ZM42.9577 24.8173L42.6772 24.5112H44.5391C45.1342 24.5112 45.5848 24.3837 45.8909 24.1286C46.2026 23.8679 46.3585 23.5023 46.3585 23.0319C46.3585 22.5558 46.2026 22.1874 45.8909 21.9267C45.5848 21.6659 45.1342 21.5356 44.5391 21.5356H42.6772L42.9577 21.238V24.8173ZM48.348 26.9427V20.9915H50.5754C51.0799 20.9915 51.5135 21.0736 51.8762 21.238C52.239 21.3967 52.5167 21.6291 52.7094 21.9352C52.9078 22.2356 53.007 22.6011 53.007 23.0319C53.007 23.4513 52.9078 23.8141 52.7094 24.1201C52.5167 24.4205 52.239 24.6529 51.8762 24.8173C51.5135 24.976 51.0799 25.0553 50.5754 25.0553H48.6965L48.9771 24.7663V26.9427H48.348ZM52.4118 26.9427L50.8815 24.7833H51.5617L53.1005 26.9427H52.4118ZM48.9771 24.8173L48.6965 24.5197H50.5584C51.1536 24.5197 51.6042 24.3894 51.9102 24.1286C52.222 23.8679 52.3778 23.5023 52.3778 23.0319C52.3778 22.5558 52.222 22.1874 51.9102 21.9267C51.6042 21.6659 51.1536 21.5356 50.5584 21.5356H48.6965L48.9771 21.238V24.8173ZM53.5397 26.9427L56.2603 20.9915H56.8809L59.6015 26.9427H58.9383L56.4388 21.357H56.6938L54.1943 26.9427H53.5397ZM54.6109 25.3529L54.7979 24.8428H58.2582L58.4452 25.3529H54.6109ZM61.4433 26.9427V21.5356H59.3519V20.9915H64.1639V21.5356H62.0725V26.9427H61.4433ZM65.169 26.9427V20.9915H65.7981V26.9427H65.169ZM70.3191 26.9938C69.8713 26.9938 69.4575 26.9201 69.0778 26.7727C68.698 26.6197 68.3693 26.4071 68.0916 26.1351C67.8138 25.863 67.5956 25.5428 67.4369 25.1744C67.2839 24.806 67.2074 24.4035 67.2074 23.9671C67.2074 23.5307 67.2839 23.1283 67.4369 22.7598C67.5956 22.3914 67.8138 22.0712 68.0916 21.7991C68.375 21.5271 68.7065 21.3174 69.0863 21.17C69.466 21.017 69.8798 20.9404 70.3276 20.9404C70.7583 20.9404 71.1636 21.0141 71.5433 21.1615C71.9231 21.3032 72.2433 21.5186 72.504 21.8076L72.1044 22.2072C71.8607 21.9578 71.5915 21.7793 71.2968 21.6716C71.002 21.5582 70.6846 21.5016 70.3446 21.5016C69.9875 21.5016 69.6559 21.5639 69.3498 21.6886C69.0438 21.8076 68.7774 21.9805 68.5507 22.2072C68.324 22.4283 68.1454 22.689 68.0151 22.9894C67.8904 23.2841 67.828 23.61 67.828 23.9671C67.828 24.3242 67.8904 24.6529 68.0151 24.9533C68.1454 25.248 68.324 25.5088 68.5507 25.7355C68.7774 25.9565 69.0438 26.1294 69.3498 26.2541C69.6559 26.3731 69.9875 26.4326 70.3446 26.4326C70.6846 26.4326 71.002 26.376 71.2968 26.2626C71.5915 26.1492 71.8607 25.9679 72.1044 25.7185L72.504 26.1181C72.2433 26.4071 71.9231 26.6253 71.5433 26.7727C71.1636 26.9201 70.7555 26.9938 70.3191 26.9938ZM72.7435 26.9427L75.4641 20.9915H76.0848L78.8054 26.9427H78.1422L75.6427 21.357H75.8977L73.3982 26.9427H72.7435ZM73.8148 25.3529L74.0018 24.8428H77.4621L77.6491 25.3529H73.8148ZM79.7898 26.9427V20.9915H82.0173C82.5218 20.9915 82.9554 21.0736 83.3181 21.238C83.6809 21.3967 83.9586 21.6291 84.1513 21.9352C84.3497 22.2356 84.4489 22.6011 84.4489 23.0319C84.4489 23.4513 84.3497 23.8141 84.1513 24.1201C83.9586 24.4205 83.6809 24.6529 83.3181 24.8173C82.9554 24.976 82.5218 25.0553 82.0173 25.0553H80.1384L80.419 24.7663V26.9427H79.7898ZM83.8537 26.9427L82.3234 24.7833H83.0035L84.5424 26.9427H83.8537ZM80.419 24.8173L80.1384 24.5197H82.0003C82.5955 24.5197 83.0461 24.3894 83.3521 24.1286C83.6639 23.8679 83.8197 23.5023 83.8197 23.0319C83.8197 22.5558 83.6639 22.1874 83.3521 21.9267C83.0461 21.6659 82.5955 21.5356 82.0003 21.5356H80.1384L80.419 21.238V24.8173Z" fill="#FBF8FC"/>
<path d="M43.1798 37.6101H46.3255V38.1457H43.1798V37.6101ZM43.2478 40.3562H46.8271V40.9003H42.6187V34.949H46.6996V35.4931H43.2478V40.3562ZM49.9468 40.9513C49.5047 40.9513 49.0796 40.8804 48.6716 40.7387C48.2691 40.5914 47.9574 40.4043 47.7364 40.1776L47.9829 39.693C48.1926 39.8971 48.4732 40.0699 48.8246 40.2116C49.1817 40.3476 49.5558 40.4157 49.9468 40.4157C50.3209 40.4157 50.6242 40.3703 50.8565 40.2796C51.0946 40.1833 51.2675 40.0558 51.3751 39.8971C51.4885 39.7383 51.5452 39.5626 51.5452 39.3699C51.5452 39.1376 51.4772 38.9505 51.3411 38.8088C51.2108 38.6671 51.0379 38.5566 50.8225 38.4772C50.6071 38.3922 50.3691 38.3185 50.1084 38.2562C49.8476 38.1938 49.5869 38.1287 49.3262 38.0607C49.0655 37.987 48.8246 37.8906 48.6035 37.7716C48.3882 37.6526 48.2125 37.4967 48.0764 37.304C47.9461 37.1056 47.8809 36.8477 47.8809 36.5303C47.8809 36.2356 47.9574 35.9664 48.1104 35.7226C48.2691 35.4733 48.51 35.2749 48.8331 35.1275C49.1562 34.9745 49.5699 34.898 50.0744 34.898C50.4088 34.898 50.7403 34.9461 51.0691 35.0425C51.3978 35.1332 51.6812 35.2607 51.9193 35.4251L51.7067 35.9267C51.4517 35.7567 51.1796 35.632 50.8905 35.5526C50.6071 35.4733 50.3323 35.4336 50.0659 35.4336C49.7088 35.4336 49.4141 35.4818 49.1817 35.5781C48.9493 35.6745 48.7764 35.8048 48.6631 35.9692C48.5554 36.1279 48.5015 36.3093 48.5015 36.5133C48.5015 36.7457 48.5667 36.9327 48.6971 37.0744C48.8331 37.2161 49.0088 37.3267 49.2242 37.406C49.4452 37.4854 49.6861 37.5562 49.9468 37.6186C50.2076 37.6809 50.4655 37.7489 50.7205 37.8226C50.9812 37.8963 51.2193 37.9926 51.4347 38.1117C51.6557 38.225 51.8314 38.3781 51.9618 38.5708C52.0978 38.7635 52.1658 39.0157 52.1658 39.3274C52.1658 39.6165 52.0865 39.8857 51.9278 40.1351C51.7691 40.3788 51.5253 40.5772 51.1966 40.7302C50.8735 40.8776 50.4569 40.9513 49.9468 40.9513ZM56.1212 40.9513C55.6734 40.9513 55.2597 40.8776 54.8799 40.7302C54.5002 40.5772 54.1714 40.3647 53.8937 40.0926C53.616 39.8205 53.3977 39.5003 53.239 39.1319C53.086 38.7635 53.0095 38.3611 53.0095 37.9246C53.0095 37.4882 53.086 37.0858 53.239 36.7174C53.3977 36.3489 53.616 36.0287 53.8937 35.7567C54.1771 35.4846 54.5087 35.2749 54.8884 35.1275C55.2682 34.9745 55.6819 34.898 56.1297 34.898C56.5604 34.898 56.9657 34.9716 57.3454 35.119C57.7252 35.2607 58.0454 35.4761 58.3061 35.7652L57.9066 36.1647C57.6628 35.9154 57.3936 35.7368 57.0989 35.6291C56.8042 35.5158 56.4868 35.4591 56.1467 35.4591C55.7896 35.4591 55.458 35.5214 55.152 35.6461C54.8459 35.7652 54.5795 35.938 54.3528 36.1647C54.1261 36.3858 53.9475 36.6465 53.8172 36.9469C53.6925 37.2416 53.6301 37.5675 53.6301 37.9246C53.6301 38.2817 53.6925 38.6104 53.8172 38.9108C53.9475 39.2056 54.1261 39.4663 54.3528 39.693C54.5795 39.9141 54.8459 40.0869 55.152 40.2116C55.458 40.3306 55.7896 40.3902 56.1467 40.3902C56.4868 40.3902 56.8042 40.3335 57.0989 40.2201C57.3936 40.1068 57.6628 39.9254 57.9066 39.676L58.3061 40.0756C58.0454 40.3647 57.7252 40.5829 57.3454 40.7302C56.9657 40.8776 56.5576 40.9513 56.1212 40.9513ZM59.6473 40.9003V34.949H61.8748C62.3792 34.949 62.8128 35.0312 63.1756 35.1955C63.5383 35.3542 63.816 35.5866 64.0088 35.8927C64.2071 36.1931 64.3063 36.5587 64.3063 36.9894C64.3063 37.4088 64.2071 37.7716 64.0088 38.0777C63.816 38.3781 63.5383 38.6104 63.1756 38.7748C62.8128 38.9335 62.3792 39.0129 61.8748 39.0129H59.9959L60.2764 38.7238V40.9003H59.6473ZM63.7112 40.9003L62.1809 38.7408H62.861L64.3998 40.9003H63.7112ZM60.2764 38.7748L59.9959 38.4772H61.8578C62.4529 38.4772 62.9035 38.3469 63.2096 38.0862C63.5213 37.8254 63.6772 37.4599 63.6772 36.9894C63.6772 36.5133 63.5213 36.1449 63.2096 35.8842C62.9035 35.6235 62.4529 35.4931 61.8578 35.4931H59.9959L60.2764 35.1955V38.7748ZM66.3523 37.6101H69.498V38.1457H66.3523V37.6101ZM66.4204 40.3562H69.9996V40.9003H65.7912V34.949H69.8721V35.4931H66.4204V40.3562ZM73.0873 40.9003L70.4518 34.949H71.1319L73.5974 40.5517H73.2234L75.7059 34.949H76.3435L73.708 40.9003H73.0873ZM77.7684 37.6101H80.9141V38.1457H77.7684V37.6101ZM77.8364 40.3562H81.4157V40.9003H77.2073V34.949H81.2882V35.4931H77.8364V40.3562ZM82.8945 40.9003V34.949H85.122C85.6265 34.949 86.0601 35.0312 86.4228 35.1955C86.7856 35.3542 87.0633 35.5866 87.256 35.8927C87.4544 36.1931 87.5536 36.5587 87.5536 36.9894C87.5536 37.4088 87.4544 37.7716 87.256 38.0777C87.0633 38.3781 86.7856 38.6104 86.4228 38.7748C86.0601 38.9335 85.6265 39.0129 85.122 39.0129H83.2431L83.5237 38.7238V40.9003H82.8945ZM86.9584 40.9003L85.4281 38.7408H86.1082L87.6471 40.9003H86.9584ZM83.5237 38.7748L83.2431 38.4772H85.105C85.7002 38.4772 86.1508 38.3469 86.4568 38.0862C86.7686 37.8254 86.9244 37.4599 86.9244 36.9894C86.9244 36.5133 86.7686 36.1449 86.4568 35.8842C86.1508 35.6235 85.7002 35.4931 85.105 35.4931H83.2431L83.5237 35.1955V38.7748Z" fill="#FBF8FC"/>
</svg>
